# xmcd CD database file
#
# Track frame offsets:
#	150
#	13158
#	32764
#	47762
#	60475
#	74495
#	87732
#	100324
#	117693
#	130358
#	144415
#	164138
#	177383
#	189828
#	206293
#	218157
#
# Disc length: 3084 seconds
#
# Revision: 2
# Processed by: cddbd v1.5.1PL0 Copyright (c) Steve Scherf et al.
# Submitted via: CDex 1.51
#
DISCID=f50c0a10
DTITLE=James Brown - The Great Artits Best Hit's
DYEAR=1900
DGENRE=R&B
TTITLE0=A Place In The Sun
TTITLE1=Superstition
TTITLE2=It's Man's Man's World
TTITLE3=Please Please Please
TTITLE4=Blue Berry Hill
TTITLE5=Stop?In The Name Of Love
TTITLE6=I Hear A Symphony
TTITLE7=Just My Imagination
TTITLE8=Walk Away Renee
TTITLE9=Stand By Me
TTITLE10=I Can't Stop Loving You
TTITLE11=When A Man Loves A Woman
TTITLE12=Dock Of The Bay
TTITLE13=River Deep Mountain High
TTITLE14=Dancing In The Street
TTITLE15=Band Of Gold
EXTD=
EXTT0=
EXTT1=
EXTT2=
EXTT3=
EXTT4=
EXTT5=
EXTT6=
EXTT7=
EXTT8=
EXTT9=
EXTT10=
EXTT11=
EXTT12=
EXTT13=
EXTT14=
EXTT15=
PLAYORDER=
